<svg width="15" height="16" viewBox="0 0 15 16" fill="none" xmlns="http://www.w3.org/2000/svg">
<path d="M3.33691 4.25532C3.33691 2.18508 5.02199 0.5 7.09223 0.5C9.16247 0.5 10.8476 2.18508 10.8476 4.25532C10.8476 6.32556 9.16247 8.01064 7.09223 8.01064C5.02199 8.01064 3.33691 6.32556 3.33691 4.25532Z" stroke="#4D4F7C"/>
<path d="M8.03783 9.81757C9.54136 9.81757 10.958 10.4139 12.0304 11.5028C13.0917 12.5804 13.6774 13.9977 13.6843 15.5H0.500063C0.507046 13.9977 1.09272 12.5804 2.154 11.5028L1.79776 11.1519L2.154 11.5028C3.22638 10.4139 4.64307 9.81757 6.14657 9.81757H8.03783Z" stroke="#4D4F7C"/>
</svg>
