<svg width="16" height="16" viewBox="0 0 16 16" fill="none" xmlns="http://www.w3.org/2000/svg">
<path d="M11.4375 12.375C11.265 12.375 11.125 12.515 11.125 12.6875C11.125 12.86 11.265 13 11.4375 13C11.61 13 11.75 12.86 11.75 12.6875C11.75 12.515 11.61 12.375 11.4375 12.375Z" fill="#4D4F7C"/>
<path d="M12.2069 11.3645L10.7216 10.8695L10.1884 9.803C10.6688 9.31406 11.0023 8.66712 11.1148 7.99234L11.1813 7.59375H11.75C12.2669 7.59375 12.6875 7.17319 12.6875 6.65625V4.6875C12.6875 2.10281 10.5847 0 8 0C5.40869 0 3.3125 2.09678 3.3125 4.6875V6.65625C3.3125 7.06362 3.57378 7.411 3.9375 7.54V7.90625C3.9375 8.42319 4.35806 8.84375 4.875 8.84375H5.14944C5.28491 9.13803 5.46025 9.41059 5.67362 9.65544C5.71788 9.70631 5.76403 9.75562 5.81131 9.80359L5.27838 10.8695L3.79303 11.3645C2.066 11.9404 0.8125 13.7585 0.8125 15.6875C0.8125 15.8601 0.952406 16 1.125 16H14.875C15.0476 16 15.1875 15.8601 15.1875 15.6875C15.1875 13.7585 13.934 11.9404 12.2069 11.3645ZM12.0625 6.65625C12.0625 6.82856 11.9223 6.96875 11.75 6.96875H11.2731C11.3525 6.35344 11.4054 5.69866 11.4267 5.05375C11.4273 5.03556 11.4278 5.01788 11.4284 5H12.0625V6.65625ZM4.25 6.96875C4.07769 6.96875 3.9375 6.82856 3.9375 6.65625V5H4.57181C4.57284 5.03259 4.57394 5.06534 4.57516 5.09831C4.57519 5.09944 4.57525 5.10053 4.57528 5.10166C4.57528 5.10175 4.57528 5.10184 4.57528 5.10194C4.59716 5.72919 4.64941 6.36697 4.72703 6.96872H4.25V6.96875ZM4.875 8.21875C4.70269 8.21875 4.5625 8.07856 4.5625 7.90625V7.59375H4.81869L4.88519 7.99247C4.89788 8.06825 4.91347 8.14375 4.9315 8.21875H4.875ZM4.56303 4.375H3.94937C4.10766 2.28059 5.85553 0.625 8 0.625C10.1349 0.625 11.8905 2.28038 12.0506 4.375H11.437C11.4145 2.64916 10.0091 1.25 8.27972 1.25H7.72034C5.991 1.25 4.5855 2.64916 4.56303 4.375ZM7.72031 1.875H8.27969C9.67997 1.875 10.8133 3.02034 10.8125 4.41906C10.8125 4.51741 10.8117 4.60303 10.8101 4.68094C10.8101 4.68194 10.81 4.68297 10.81 4.684L10.4192 4.62816C9.35728 4.47653 8.35466 3.97522 7.59597 3.21653C7.53734 3.15794 7.45787 3.125 7.375 3.125C6.53575 3.125 5.73238 3.50738 5.20131 4.15338C5.33219 2.88091 6.40791 1.875 7.72031 1.875ZM5.57937 8.21875C5.42294 7.69834 5.24394 6.16709 5.20437 5.18584L5.62497 4.62503C6.01125 4.11016 6.61222 3.79025 7.2515 3.75353C8.09266 4.55403 9.18084 5.08266 10.3308 5.24684L10.7908 5.31259C10.7601 5.96525 10.6973 6.62019 10.6072 7.22253C10.6072 7.22272 10.6072 7.22294 10.6071 7.22316C10.5785 7.41681 10.5559 7.54144 10.4983 7.88953C10.3328 8.88219 9.59212 9.77984 8.61434 10.0243C8.21194 10.1248 7.788 10.1248 7.38581 10.0243C6.77528 9.87169 6.21547 9.44925 5.85419 8.84375H6.49125C6.62025 9.20747 6.96759 9.46875 7.375 9.46875H8C8.51797 9.46875 8.9375 9.04925 8.9375 8.53125C8.9375 8.01431 8.51694 7.59375 8 7.59375H7.375C6.95853 7.59375 6.61631 7.86275 6.49072 8.21875H5.57937ZM7.34872 10.6567C7.56306 10.7019 7.78159 10.725 8 10.725C8.17097 10.725 8.34197 10.7107 8.51103 10.6829L7.95884 11.2669L7.34872 10.6567ZM7.52922 11.7212L6.53803 12.7694C6.26516 12.2471 6.03069 11.7035 5.83838 11.147L6.21059 10.4026L7.52922 11.7212ZM9.73644 10.2967L10.1616 11.147C9.96894 11.7044 9.73441 12.2482 9.46181 12.7699L8.40094 11.709L9.73644 10.2967ZM7.0625 8.53125C7.0625 8.35872 7.20244 8.21875 7.375 8.21875H8C8.17231 8.21875 8.3125 8.35894 8.3125 8.53125C8.3125 8.70381 8.17253 8.84375 8 8.84375H7.375C7.20269 8.84375 7.0625 8.70356 7.0625 8.53125ZM1.45 15.375C1.57384 13.8269 2.60413 12.4198 3.99069 11.9574L5.30613 11.519C5.54713 12.1854 5.84569 12.8332 6.19559 13.4484C6.19619 13.4495 6.19675 13.4505 6.19734 13.4516C6.19734 13.4516 6.19737 13.4516 6.19737 13.4516C6.45303 13.9013 6.74078 14.3407 7.05275 14.7578L7.43719 15.375H1.45ZM8 15.0964L7.57619 14.416C7.57144 14.4084 7.56637 14.401 7.561 14.3938C7.30794 14.0562 7.07188 13.7032 6.85687 13.3419L7.97134 12.1633L9.14566 13.3376C8.92922 13.7016 8.69234 14.0561 8.43906 14.3938C8.42375 14.4142 8.44547 14.382 8 15.0964ZM8.56281 15.375L8.94722 14.7579C9.26056 14.3391 9.55037 13.8962 9.80859 13.4412C9.81016 13.4385 9.81163 13.4357 9.81319 13.4329C9.81338 13.4326 9.81356 13.4323 9.81375 13.4319C10.1592 12.8226 10.4547 12.1805 10.6939 11.519L12.0093 11.9574C13.3959 12.4198 14.4262 13.8269 14.55 15.375H8.56281Z" fill="#4D4F7C"/>
<path d="M13.6109 14.1103C13.402 13.6923 13.0961 13.3209 12.7262 13.0364C12.5894 12.9311 12.3932 12.9567 12.288 13.0935C12.1827 13.2303 12.2083 13.4265 12.3451 13.5317C12.6405 13.759 12.8849 14.0557 13.0517 14.3896C13.129 14.5443 13.3168 14.6065 13.4709 14.5295C13.6253 14.4524 13.688 14.2647 13.6109 14.1103Z" fill="#4D4F7C"/>
</svg>
