<svg width="16" height="16" viewBox="0 0 16 16" fill="none" xmlns="http://www.w3.org/2000/svg">
<path d="M8 0C3.58177 0 0 3.58177 0 8C0 12.4182 3.58177 16 8 16C12.4182 16 16 12.4182 16 8C15.9951 3.58385 12.4161 0.00494793 8 0ZM8 15.4667C3.8763 15.4667 0.533333 12.1237 0.533333 8C0.533333 3.8763 3.8763 0.533333 8 0.533333C12.1237 0.533333 15.4667 3.8763 15.4667 8C15.462 12.1217 12.1217 15.462 8 15.4667Z" fill="#4D4F7C"/>
<path d="M7.99992 1.33331C4.31802 1.33331 1.33325 4.31808 1.33325 7.99998C1.33325 11.6819 4.31802 14.6666 7.99992 14.6666C11.6818 14.6666 14.6666 11.6819 14.6666 7.99998C14.6624 4.31977 11.6801 1.33748 7.99992 1.33331ZM7.99992 14.1333C4.61255 14.1333 1.86659 11.3874 1.86659 7.99998C1.86659 4.61261 4.61255 1.86665 7.99992 1.86665C11.3873 1.86665 14.1333 4.61261 14.1333 7.99998C14.1295 11.3858 11.3857 14.1295 7.99992 14.1333Z" fill="#4D4F7C"/>
<path d="M11.9275 4.07251C11.8427 3.98787 11.7118 3.97029 11.6075 4.02954L6.84668 6.74659C6.84382 6.74854 6.84251 6.75167 6.83952 6.75336C6.80905 6.77953 6.78053 6.80805 6.75423 6.83865C6.75254 6.84151 6.74941 6.84295 6.74759 6.84581L4.02962 11.6066C3.97011 11.711 3.98782 11.8423 4.07272 11.9273C4.15774 12.0122 4.28899 12.0299 4.39342 11.9704L9.15345 9.25336C9.15632 9.25141 9.15762 9.24828 9.16062 9.24659C9.19108 9.22042 9.2196 9.1919 9.2459 9.1613C9.24759 9.15844 9.25072 9.157 9.25254 9.15414L11.9705 4.39412C12.0305 4.28956 12.013 4.15766 11.9275 4.07251ZM4.97715 11.0229L7.03744 7.41469L8.58679 8.9626L4.97715 11.0229ZM8.9627 8.58669L7.41608 7.03995L11.0243 4.97967L8.9627 8.58669Z" fill="#4D4F7C"/>
<path d="M3.73324 7.73334H2.66657C2.5193 7.73334 2.3999 7.85274 2.3999 8C2.3999 8.14727 2.5193 8.26667 2.66657 8.26667H3.73324C3.8805 8.26667 3.9999 8.14727 3.9999 8C3.9999 7.85274 3.8805 7.73334 3.73324 7.73334Z" fill="#4D4F7C"/>
<path d="M13.3333 7.73334H12.2667C12.1194 7.73334 12 7.85274 12 8C12 8.14727 12.1194 8.26667 12.2667 8.26667H13.3333C13.4806 8.26667 13.6 8.14727 13.6 8C13.6 7.85274 13.4806 7.73334 13.3333 7.73334Z" fill="#4D4F7C"/>
<path d="M8.00006 3.99999C8.14733 3.99999 8.26673 3.88059 8.26673 3.73333V2.66666C8.26673 2.51939 8.14733 2.39999 8.00006 2.39999C7.8528 2.39999 7.7334 2.51939 7.7334 2.66666V3.73333C7.7334 3.88059 7.8528 3.99999 8.00006 3.99999Z" fill="#4D4F7C"/>
<path d="M8.00006 12C7.8528 12 7.7334 12.1194 7.7334 12.2667V13.3333C7.7334 13.4806 7.8528 13.6 8.00006 13.6C8.14733 13.6 8.26673 13.4806 8.26673 13.3333V12.2667C8.26673 12.1194 8.14733 12 8.00006 12Z" fill="#4D4F7C"/>
</svg>
