<svg width="16" height="16" viewBox="0 0 16 16" fill="none" xmlns="http://www.w3.org/2000/svg">
<path d="M13.3333 10.6667H11.2V5.33333H13.3333C14.8037 5.33333 16 4.13707 16 2.66667C16 1.19627 14.8037 0 13.3333 0C11.8629 0 10.6667 1.19627 10.6667 2.66667V4.8H5.33333V2.66667C5.33333 1.19627 4.13707 0 2.66667 0C1.19627 0 0 1.19627 0 2.66667C0 4.13707 1.19627 5.33333 2.66667 5.33333H4.8V10.6667H2.66667C1.19627 10.6667 0 11.8629 0 13.3333C0 14.8037 1.19627 16 2.66667 16C4.13707 16 5.33333 14.8037 5.33333 13.3333V11.2H10.6667V13.3333C10.6667 14.8037 11.8629 16 13.3333 16C14.8037 16 16 14.8037 16 13.3333C16 11.8629 14.8037 10.6667 13.3333 10.6667ZM11.2 2.66667C11.2 1.4904 12.1571 0.533333 13.3333 0.533333C14.5096 0.533333 15.4667 1.4904 15.4667 2.66667C15.4667 3.84293 14.5096 4.8 13.3333 4.8H11.2V2.66667ZM2.66667 4.8C1.4904 4.8 0.533333 3.84293 0.533333 2.66667C0.533333 1.4904 1.4904 0.533333 2.66667 0.533333C3.84293 0.533333 4.8 1.4904 4.8 2.66667V4.8H2.66667ZM4.8 13.3333C4.8 14.5096 3.84293 15.4667 2.66667 15.4667C1.4904 15.4667 0.533333 14.5096 0.533333 13.3333C0.533333 12.1571 1.4904 11.2 2.66667 11.2H4.8V13.3333ZM5.33333 10.6667V5.33333H10.6667V10.6667H5.33333ZM13.3333 15.4667C12.1571 15.4667 11.2 14.5096 11.2 13.3333V11.2H13.3333C14.5096 11.2 15.4667 12.1571 15.4667 13.3333C15.4667 14.5096 14.5096 15.4667 13.3333 15.4667Z" fill="#4D4F7C"/>
</svg>
