<svg width="16" height="16" viewBox="0 0 16 16" fill="none" xmlns="http://www.w3.org/2000/svg">
<path d="M8 0C3.58881 0 0 3.58881 0 8C0 12.4112 3.58881 16 8 16C12.4112 16 16 12.4112 16 8C16 3.58881 12.4112 0 8 0ZM8 14.9769C4.15296 14.9769 1.02313 11.8471 1.02313 8C1.02313 4.1529 4.15296 1.02313 8 1.02313C11.847 1.02313 14.9769 4.15296 14.9769 8C14.9769 11.847 11.847 14.9769 8 14.9769Z" fill="white"/>
<path d="M9.28624 10.3317L8.32995 10.8915V6.81087C8.32995 6.63222 8.23673 6.46653 8.08412 6.37376C7.93144 6.281 7.74154 6.27446 7.5829 6.35677L6.2198 7.06364C5.96896 7.19369 5.87108 7.50245 6.00113 7.75323C6.13124 8.00407 6.43994 8.10201 6.69078 7.9719L7.30682 7.65245V11.7839C7.30682 11.9672 7.40493 12.1365 7.56391 12.2277C7.64275 12.2729 7.73057 12.2954 7.81839 12.2954C7.90774 12.2954 7.99704 12.2721 8.07678 12.2254L9.80309 11.2149C10.0469 11.0721 10.1289 10.7588 9.98618 10.515C9.84345 10.2711 9.53003 10.189 9.28624 10.3317Z" fill="white"/>
<path d="M7.81839 5.62994C8.20875 5.62994 8.5252 5.31349 8.5252 4.92312C8.5252 4.53276 8.20875 4.21631 7.81839 4.21631C7.42802 4.21631 7.11157 4.53276 7.11157 4.92312C7.11157 5.31349 7.42802 5.62994 7.81839 5.62994Z" fill="white"/>
</svg>
