<svg width="16" height="15" viewBox="0 0 16 15" fill="none" xmlns="http://www.w3.org/2000/svg">
<path d="M11.9372 7.66621C10.96 7.66278 10.0251 8.06525 9.35604 8.77765C8.39371 8.00989 7.19812 7.59378 5.96708 7.59843H5.95738C4.47782 7.60156 3.10484 8.17667 2.08726 9.22335C1.05341 10.2798 0.488092 11.7238 0.491224 13.2907C0.49183 13.3764 0.52547 13.4585 0.584972 13.52C0.645685 13.5808 0.728321 13.6146 0.81429 13.6137L9.29462 13.5976C9.31401 13.6202 9.33331 13.6396 9.35281 13.6622C10.4662 14.8405 12.236 15.1161 13.655 14.3323C15.074 13.5484 15.783 11.9037 15.3784 10.3339C14.9738 8.76401 13.5584 7.66672 11.9372 7.66621ZM1.14705 12.9644C1.21494 11.6947 1.706 10.535 2.54913 9.67249C3.44407 8.75179 4.65552 8.24456 5.95738 8.24456H5.96708C7.05366 8.24032 8.10913 8.60722 8.95862 9.28477C8.24289 10.3902 8.19571 11.8006 8.83588 12.9515L1.14705 12.9644ZM11.9372 14.1274C10.3314 14.1274 9.02974 12.8257 9.02974 11.2198C9.02974 9.6142 10.3314 8.31234 11.9372 8.31234C13.5431 8.31234 14.8447 9.6142 14.8447 11.2198C14.8447 12.8257 13.5431 14.1274 11.9372 14.1274Z" fill="#4D4F7C"/>
<path d="M5.96062 6.82954C7.84648 6.82954 9.37534 5.30068 9.37534 3.41482C9.37534 1.52886 7.84648 0 5.96062 0C4.07475 0 2.5459 1.52886 2.5459 3.41482C2.54772 5.29988 4.07546 6.82772 5.96062 6.82954ZM5.96062 0.646132C7.48978 0.646132 8.72921 1.88576 8.72921 3.41482C8.72921 4.94378 7.48978 6.18341 5.96062 6.18341C4.43156 6.18341 3.19203 4.94378 3.19203 3.41482C3.19385 1.88647 4.43227 0.648051 5.96062 0.646132Z" fill="#4D4F7C"/>
<path d="M13.2456 10.8967H12.2602V9.9115C12.2602 9.733 12.1155 9.58844 11.9371 9.58844C11.7587 9.58844 11.6141 9.733 11.6141 9.9115V10.8967H10.6287C10.4503 10.8967 10.3057 11.0414 10.3057 11.2198C10.3057 11.3983 10.4503 11.5429 10.6287 11.5429H11.6141V12.5282C11.6141 12.7066 11.7587 12.8513 11.9371 12.8513C12.1155 12.8513 12.2602 12.7066 12.2602 12.5282V11.5429H13.2456C13.424 11.5429 13.5685 11.3983 13.5685 11.2198C13.5685 11.0414 13.424 10.8967 13.2456 10.8967Z" fill="#4D4F7C"/>
</svg>
