<svg width="12" height="15" viewBox="0 0 12 15" fill="none" xmlns="http://www.w3.org/2000/svg">
<path d="M11.5 9C11.5 12.0376 9.03757 14.5 6 14.5C2.96243 14.5 0.5 12.0376 0.5 9C0.5 8.30309 0.822701 7.41883 1.37319 6.44108C1.91614 5.47674 2.64662 4.48007 3.38719 3.57372C4.12621 2.66927 4.86658 1.86528 5.42288 1.28686C5.65092 1.04975 5.84759 0.850997 6 0.69928C6.15241 0.850997 6.34908 1.04975 6.57712 1.28686C7.13342 1.86528 7.87379 2.66927 8.61281 3.57372C9.35338 4.48007 10.0839 5.47674 10.6268 6.44108C11.1773 7.41883 11.5 8.30309 11.5 9Z" stroke="#4D4F7C"/>
</svg>
