<svg width="16" height="16" viewBox="0 0 16 16" fill="none" xmlns="http://www.w3.org/2000/svg">
<path d="M13.6504 2.34963C12.1352 0.834438 10.1285 0 8 0C5.87147 0 3.86478 0.834438 2.34963 2.34963C0.834438 3.86478 0 5.87147 0 8C0 10.1285 0.834438 12.1352 2.34963 13.6504C3.86478 15.1656 5.87147 16 8 16C10.1285 16 12.1352 15.1656 13.6504 13.6504C15.1656 12.1352 16 10.1285 16 8C16 5.87147 15.1656 3.86478 13.6504 2.34963ZM8 15.0625C4.10572 15.0625 0.9375 11.8943 0.9375 8C0.9375 4.10572 4.10572 0.9375 8 0.9375C11.8943 0.9375 15.0625 4.10572 15.0625 8C15.0625 11.8943 11.8943 15.0625 8 15.0625Z" fill="#4D4F7C"/>
<path d="M8 1.90625C4.63991 1.90625 1.90625 4.63991 1.90625 8C1.90625 11.3601 4.63991 14.0938 8 14.0938C11.3601 14.0938 14.0938 11.3601 14.0938 8C14.0938 4.63991 11.3601 1.90625 8 1.90625ZM8 13.1562C5.15684 13.1562 2.84375 10.8432 2.84375 8C2.84375 5.15684 5.15684 2.84375 8 2.84375C10.8432 2.84375 13.1562 5.15684 13.1562 8C13.1562 10.8432 10.8432 13.1562 8 13.1562Z" fill="#4D4F7C"/>
<path d="M9.40625 6.58901C9.40625 6.84789 9.61613 7.05776 9.875 7.05776C10.1339 7.05776 10.3438 6.84789 10.3438 6.58901C10.3438 6.06988 10.0752 5.57076 9.60706 5.21963C9.28728 4.97979 8.89381 4.81957 8.46875 4.75141V4.24522C8.46875 3.98635 8.25887 3.77647 8 3.77647C7.74113 3.77647 7.53125 3.98635 7.53125 4.24522V4.75141C7.10616 4.81957 6.71269 4.97979 6.39294 5.21963C5.92475 5.57076 5.65625 6.06988 5.65625 6.58901C5.65625 7.10814 5.92475 7.60723 6.39294 7.95839C6.71272 8.19823 7.10619 8.35845 7.53125 8.42661V10.2831C6.99125 10.1512 6.59375 9.80073 6.59375 9.40152C6.59375 9.14264 6.38388 8.93276 6.125 8.93276C5.86612 8.93276 5.65625 9.14264 5.65625 9.40152C5.65625 9.92064 5.92475 10.4197 6.39294 10.7709C6.71272 11.0107 7.10619 11.171 7.53125 11.2391V11.75C7.53125 12.0089 7.74113 12.2188 8 12.2188C8.25887 12.2188 8.46875 12.0089 8.46875 11.75V11.2391C8.89384 11.171 9.28731 11.0107 9.60706 10.7709C10.0752 10.4198 10.3438 9.92064 10.3438 9.40152C10.3438 8.88239 10.0752 8.38326 9.60706 8.03214C9.28728 7.79229 8.89381 7.63207 8.46875 7.56392V5.70738C9.00875 5.83938 9.40625 6.18979 9.40625 6.58901ZM6.59375 6.58901C6.59375 6.18979 6.99125 5.83935 7.53125 5.70738V7.47061C6.99125 7.33867 6.59375 6.98823 6.59375 6.58901ZM9.40625 9.40152C9.40625 9.80073 9.00875 10.1512 8.46875 10.2831V8.51992C9.00875 8.65189 9.40625 9.0023 9.40625 9.40152Z" fill="#4D4F7C"/>
</svg>
