<svg width="12" height="17" viewBox="0 0 12 17" fill="none" xmlns="http://www.w3.org/2000/svg">
<path d="M9.428 2.514V4.472H11.98V6.276H9.296C9.06133 7.728 8.48933 8.75467 7.58 9.356C6.67067 9.95733 5.24067 10.258 3.29 10.258V11.644C3.29 13.3893 4.038 14.262 5.534 14.262C7.04467 14.262 7.8 13.4187 7.8 11.732H10.11C10.0953 13.2133 9.692 14.3353 8.9 15.098C8.12267 15.846 6.99333 16.22 5.512 16.22C4.03067 16.22 2.894 15.8093 2.102 14.988C1.32467 14.1667 0.936 13.0153 0.936 11.534V8.52C3.268 8.52 4.808 8.39533 5.556 8.146C6.31867 7.89667 6.788 7.27333 6.964 6.276H0.0120001V4.472H7.074V2.514H0.0120001V0.687999H11.98V2.514H9.428Z" fill="#4D4F7C"/>
</svg>
