<svg width="15" height="15" viewBox="0 0 15 15" fill="none" xmlns="http://www.w3.org/2000/svg">
<path d="M7.5 0.5V7.5H14.5" stroke="#4D4F7C"/>
<path fill-rule="evenodd" clip-rule="evenodd" d="M13.8261 9C13.1489 11.8667 10.5736 14 7.5 14C3.91015 14 1 11.0899 1 7.5C1 4.42642 3.1333 1.8511 6 1.17393V0.150027C2.57664 0.844933 0 3.87156 0 7.5C0 11.6421 3.35786 15 7.5 15C11.1284 15 14.1551 12.4234 14.85 9H13.8261ZM13.9811 8H14.9836C14.9945 7.83474 15 7.66801 15 7.5C15 3.35786 11.6421 0 7.5 0C7.33199 0 7.16526 0.00552468 7 0.0164023V1.01894C7.16502 1.00639 7.33176 1 7.5 1C11.0899 1 14 3.91015 14 7.5C14 7.66824 13.9936 7.83498 13.9811 8Z" fill="#4D4F7C"/>
</svg>
